<svg xmlns="http://www.w3.org/2000/svg" xmlns:xlink="http://www.w3.org/1999/xlink" width="500" zoomAndPan="magnify" viewBox="0 0 375 374.999991" height="500" preserveAspectRatio="xMidYMid meet" version="1.0"><defs><g/><clipPath id="9e134aafed"><path d="M 139 214.230469 L 232.972656 214.230469 L 232.972656 273 L 139 273 Z M 139 214.230469 " clip-rule="nonzero"/></clipPath><clipPath id="04340be19e"><path d="M 138.472656 214.230469 L 232.972656 214.230469 L 232.972656 273.746094 L 138.472656 273.746094 Z M 138.472656 214.230469 " clip-rule="nonzero"/></clipPath><clipPath id="dc2ec5e3b5"><path d="M 139 85 L 230.722656 85 L 230.722656 179.246094 L 139 179.246094 Z M 139 85 " clip-rule="nonzero"/></clipPath><clipPath id="3f6f7225c5"><path d="M 138.472656 84 L 230.722656 84 L 230.722656 179.246094 L 138.472656 179.246094 Z M 138.472656 84 " clip-rule="nonzero"/></clipPath></defs><g clip-path="url(#9e134aafed)"><path fill="#ffbe2d" d="M 165.984375 226.441406 L 169.921875 178.296875 L 201.773438 178.296875 L 205.714844 226.441406 Z M 209.78125 226.441406 L 161.496094 226.441406 C 161.496094 234.203125 157.449219 241.597656 152.019531 246.75 L 145.925781 252.53125 C 144.070312 253.707031 142.929688 255.835938 142.929688 258.148438 C 142.929688 261.753906 145.667969 264.675781 149.039062 264.671875 L 222.664062 264.640625 C 226.035156 264.640625 228.765625 261.714844 228.765625 258.113281 L 228.765625 258.109375 C 228.765625 255.804688 227.628906 253.667969 225.773438 252.492188 L 218.484375 245.714844 C 213.289062 240.882812 210.625 234.007812 210.257812 226.65625 Z M 232.054688 268.683594 C 232.054688 266.464844 230.261719 264.671875 228.046875 264.671875 L 143.652344 264.671875 C 141.4375 264.671875 139.640625 266.464844 139.640625 268.683594 C 139.640625 270.898438 141.4375 272.691406 143.652344 272.691406 L 228.046875 272.691406 C 230.261719 272.691406 232.054688 270.898438 232.054688 268.683594 Z M 214.761719 173.410156 C 214.761719 170.699219 212.5625 168.503906 209.851562 168.503906 L 161.847656 168.503906 C 159.136719 168.503906 156.9375 170.699219 156.9375 173.410156 C 156.9375 176.125 159.136719 178.320312 161.847656 178.320312 L 209.851562 178.320312 C 212.5625 178.320312 214.761719 176.125 214.761719 173.410156 Z M 211.542969 163.59375 C 211.542969 160.878906 209.34375 158.683594 206.632812 158.683594 L 165.066406 158.683594 C 162.351562 158.683594 160.15625 160.878906 160.15625 163.59375 C 160.15625 166.304688 162.351562 168.503906 165.066406 168.503906 L 206.628906 168.503906 C 209.34375 168.503906 211.542969 166.304688 211.542969 163.59375 Z M 199.324219 110.097656 C 199.324219 107.386719 197.128906 105.191406 194.414062 105.191406 L 177.285156 105.191406 C 174.570312 105.191406 172.375 107.386719 172.375 110.097656 C 172.375 112.8125 174.570312 115.007812 177.285156 115.007812 L 194.410156 115.007812 C 197.128906 115.007812 199.324219 112.8125 199.324219 110.097656 Z M 209.339844 115.007812 L 162.359375 115.007812 C 158.742188 115.007812 156.105469 118.441406 157.046875 121.9375 L 166.910156 158.683594 L 204.792969 158.683594 L 214.65625 121.9375 C 215.59375 118.441406 212.960938 115.007812 209.339844 115.007812 Z M 196.484375 91.648438 L 190.148438 91.648438 L 190.148438 85.308594 L 182.941406 85.308594 L 182.941406 91.648438 L 176.605469 91.648438 L 176.605469 98.855469 L 182.941406 98.855469 L 182.941406 105.195312 L 190.152344 105.195312 L 190.152344 98.851562 L 196.488281 98.851562 L 196.488281 91.648438 Z M 196.484375 91.648438 " fill-opacity="1" fill-rule="nonzero"/></g><g clip-path="url(#04340be19e)"><path fill="#f5f5ef" d="M 205.714844 227.613281 L 165.988281 227.613281 C 165.660156 227.613281 165.347656 227.476562 165.125 227.234375 C 164.90625 226.988281 164.792969 226.671875 164.820312 226.34375 L 168.761719 178.199219 C 168.8125 177.589844 169.320312 177.121094 169.929688 177.121094 L 201.777344 177.121094 C 202.386719 177.121094 202.898438 177.589844 202.945312 178.199219 L 206.886719 226.34375 C 206.914062 226.671875 206.800781 226.988281 206.582031 227.234375 C 206.351562 227.476562 206.042969 227.613281 205.714844 227.613281 Z M 167.257812 225.269531 L 204.445312 225.269531 L 200.695312 179.46875 L 171 179.46875 Z M 149.039062 265.84375 C 147.082031 265.84375 145.246094 265.03125 143.867188 263.5625 C 142.507812 262.109375 141.765625 260.1875 141.765625 258.148438 C 141.765625 255.496094 143.078125 253.003906 145.203125 251.605469 L 151.21875 245.902344 C 156.925781 240.484375 160.328125 233.210938 160.328125 226.441406 C 160.328125 225.792969 160.855469 225.269531 161.5 225.269531 L 209.785156 225.269531 C 209.949219 225.269531 210.113281 225.308594 210.261719 225.375 L 210.742188 225.589844 C 211.144531 225.765625 211.410156 226.160156 211.429688 226.601562 C 211.792969 234.003906 214.582031 240.484375 219.28125 244.855469 L 226.496094 251.566406 C 228.621094 252.960938 229.9375 255.457031 229.9375 258.109375 C 229.9375 262.359375 226.671875 265.8125 222.664062 265.816406 Z M 162.640625 227.613281 C 162.289062 234.746094 158.753906 241.976562 152.824219 247.601562 L 146.730469 253.382812 C 146.675781 253.433594 146.613281 253.480469 146.550781 253.523438 C 145.042969 254.480469 144.101562 256.253906 144.101562 258.148438 C 144.101562 259.59375 144.625 260.949219 145.578125 261.964844 C 146.503906 262.957031 147.738281 263.507812 149.039062 263.507812 L 222.664062 263.472656 C 225.382812 263.472656 227.597656 261.070312 227.597656 258.117188 C 227.597656 256.214844 226.660156 254.445312 225.144531 253.484375 C 225.085938 253.449219 225.027344 253.402344 224.976562 253.355469 L 217.6875 246.574219 C 212.730469 241.964844 209.71875 235.261719 209.148438 227.617188 L 162.640625 227.617188 Z M 228.046875 273.863281 L 143.652344 273.863281 C 140.792969 273.863281 138.472656 271.539062 138.472656 268.683594 C 138.472656 265.824219 140.792969 263.5 143.652344 263.5 L 228.046875 263.5 C 230.902344 263.5 233.226562 265.824219 233.226562 268.683594 C 233.226562 271.539062 230.902344 273.863281 228.046875 273.863281 Z M 143.652344 265.84375 C 142.085938 265.84375 140.8125 267.117188 140.8125 268.683594 C 140.8125 270.246094 142.085938 271.519531 143.652344 271.519531 L 228.046875 271.519531 C 229.609375 271.519531 230.882812 270.246094 230.882812 268.683594 C 230.882812 267.117188 229.609375 265.84375 228.046875 265.84375 Z M 209.851562 179.492188 L 161.847656 179.492188 C 158.492188 179.492188 155.765625 176.765625 155.765625 173.410156 C 155.765625 170.058594 158.492188 167.332031 161.847656 167.332031 L 209.851562 167.332031 C 213.203125 167.332031 215.929688 170.058594 215.929688 173.410156 C 215.929688 176.765625 213.203125 179.492188 209.851562 179.492188 Z M 161.847656 169.671875 C 159.785156 169.671875 158.109375 171.351562 158.109375 173.410156 C 158.109375 175.472656 159.785156 177.148438 161.847656 177.148438 L 209.851562 177.148438 C 211.910156 177.148438 213.589844 175.472656 213.589844 173.410156 C 213.589844 171.351562 211.910156 169.671875 209.851562 169.671875 Z M 206.632812 169.671875 L 165.066406 169.671875 C 161.710938 169.671875 158.984375 166.945312 158.984375 163.59375 C 158.984375 160.238281 161.710938 157.511719 165.066406 157.511719 L 206.632812 157.511719 C 209.988281 157.511719 212.710938 160.238281 212.710938 163.59375 C 212.710938 166.945312 209.988281 169.671875 206.632812 169.671875 Z M 165.066406 159.855469 C 163.003906 159.855469 161.328125 161.53125 161.328125 163.59375 C 161.328125 165.652344 163.003906 167.332031 165.066406 167.332031 L 206.632812 167.332031 C 208.695312 167.332031 210.371094 165.652344 210.371094 163.59375 C 210.371094 161.53125 208.695312 159.855469 206.632812 159.855469 Z M 194.414062 116.179688 L 177.285156 116.179688 C 173.929688 116.179688 171.203125 113.453125 171.203125 110.097656 C 171.203125 106.746094 173.929688 104.019531 177.285156 104.019531 L 194.410156 104.019531 C 197.765625 104.019531 200.492188 106.746094 200.492188 110.097656 C 200.496094 113.453125 197.765625 116.179688 194.414062 116.179688 Z M 177.285156 106.359375 C 175.222656 106.359375 173.542969 108.039062 173.542969 110.097656 C 173.542969 112.160156 175.222656 113.835938 177.285156 113.835938 L 194.410156 113.835938 C 196.472656 113.835938 198.148438 112.160156 198.148438 110.097656 C 198.148438 108.039062 196.472656 106.359375 194.410156 106.359375 Z M 204.785156 159.855469 L 166.910156 159.855469 C 166.382812 159.855469 165.917969 159.5 165.78125 158.988281 L 155.910156 122.242188 C 155.367188 120.222656 155.789062 118.109375 157.058594 116.453125 C 158.335938 114.792969 160.265625 113.835938 162.351562 113.835938 L 209.335938 113.835938 C 211.429688 113.835938 213.355469 114.789062 214.628906 116.453125 C 215.902344 118.113281 216.320312 120.222656 215.777344 122.242188 L 205.910156 158.988281 C 205.785156 159.5 205.320312 159.855469 204.785156 159.855469 Z M 167.804688 157.511719 L 203.886719 157.511719 L 213.519531 121.632812 C 213.871094 120.320312 213.597656 118.953125 212.773438 117.875 C 211.949219 116.796875 210.695312 116.179688 209.335938 116.179688 L 162.359375 116.179688 C 161 116.179688 159.75 116.796875 158.917969 117.875 C 158.09375 118.953125 157.824219 120.320312 158.175781 121.632812 Z M 170.527344 146.671875 C 171.152344 146.503906 171.519531 145.863281 171.355469 145.238281 L 167.035156 129.132812 C 166.863281 128.507812 166.222656 128.140625 165.601562 128.304688 C 164.976562 128.472656 164.605469 129.113281 164.769531 129.738281 L 169.09375 145.84375 C 169.234375 146.367188 169.707031 146.710938 170.222656 146.710938 C 170.320312 146.714844 170.425781 146.699219 170.527344 146.671875 Z M 190.152344 106.359375 L 182.941406 106.359375 C 182.296875 106.359375 181.769531 105.835938 181.769531 105.191406 L 181.769531 100.023438 L 176.605469 100.023438 C 175.957031 100.023438 175.433594 99.496094 175.433594 98.851562 L 175.433594 91.648438 C 175.433594 91 175.957031 90.476562 176.605469 90.476562 L 181.769531 90.476562 L 181.769531 85.308594 C 181.769531 84.660156 182.296875 84.136719 182.941406 84.136719 L 190.152344 84.136719 C 190.796875 84.136719 191.324219 84.660156 191.324219 85.308594 L 191.324219 90.476562 L 196.488281 90.476562 C 197.136719 90.476562 197.660156 91 197.660156 91.648438 L 197.660156 98.855469 C 197.660156 99.503906 197.136719 100.027344 196.488281 100.027344 L 191.324219 100.027344 L 191.324219 105.195312 C 191.324219 105.835938 190.796875 106.359375 190.152344 106.359375 Z M 184.113281 104.019531 L 188.980469 104.019531 L 188.980469 98.851562 C 188.980469 98.203125 189.503906 97.679688 190.152344 97.679688 L 195.320312 97.679688 L 195.320312 92.816406 L 190.152344 92.816406 C 189.503906 92.816406 188.980469 92.292969 188.980469 91.648438 L 188.980469 86.480469 L 184.113281 86.480469 L 184.113281 91.648438 C 184.113281 92.292969 183.589844 92.816406 182.941406 92.816406 L 177.773438 92.816406 L 177.773438 97.683594 L 182.941406 97.683594 C 183.589844 97.683594 184.113281 98.210938 184.113281 98.855469 Z M 184.113281 104.019531 " fill-opacity="1" fill-rule="nonzero"/></g><g fill="#ffbe2d" fill-opacity="1"><g transform="translate(91.493158, 206.083933)"><g><path d="M 10.203125 0.375 C 9.191406 0.375 8.222656 0.226562 7.296875 -0.0625 C 6.378906 -0.351562 5.535156 -0.765625 4.765625 -1.296875 C 4.003906 -1.835938 3.335938 -2.488281 2.765625 -3.25 C 2.203125 -4.007812 1.765625 -4.859375 1.453125 -5.796875 C 1.148438 -6.742188 1 -7.765625 1 -8.859375 C 1 -9.953125 1.15625 -10.972656 1.46875 -11.921875 C 1.78125 -12.867188 2.21875 -13.722656 2.78125 -14.484375 C 3.34375 -15.242188 4.003906 -15.890625 4.765625 -16.421875 C 5.535156 -16.960938 6.378906 -17.375 7.296875 -17.65625 C 8.210938 -17.945312 9.175781 -18.09375 10.1875 -18.09375 C 11.46875 -18.09375 12.65625 -17.867188 13.75 -17.421875 C 14.851562 -16.972656 15.816406 -16.351562 16.640625 -15.5625 C 16.753906 -15.457031 16.804688 -15.347656 16.796875 -15.234375 C 16.785156 -15.117188 16.726562 -15.007812 16.625 -14.90625 L 15.59375 -14.078125 C 15.375 -13.878906 15.15625 -13.882812 14.9375 -14.09375 C 14.300781 -14.664062 13.582031 -15.113281 12.78125 -15.4375 C 11.976562 -15.757812 11.113281 -15.921875 10.1875 -15.921875 C 9.238281 -15.921875 8.34375 -15.75 7.5 -15.40625 C 6.664062 -15.070312 5.929688 -14.59375 5.296875 -13.96875 C 4.671875 -13.34375 4.175781 -12.597656 3.8125 -11.734375 C 3.445312 -10.878906 3.265625 -9.929688 3.265625 -8.890625 C 3.265625 -7.835938 3.445312 -6.878906 3.8125 -6.015625 C 4.175781 -5.148438 4.675781 -4.40625 5.3125 -3.78125 C 5.945312 -3.15625 6.679688 -2.671875 7.515625 -2.328125 C 8.359375 -1.984375 9.265625 -1.8125 10.234375 -1.8125 C 11.140625 -1.8125 11.992188 -1.972656 12.796875 -2.296875 C 13.609375 -2.628906 14.320312 -3.078125 14.9375 -3.640625 C 15.15625 -3.835938 15.375 -3.835938 15.59375 -3.640625 L 16.625 -2.84375 C 16.875 -2.625 16.894531 -2.410156 16.6875 -2.203125 C 15.875 -1.410156 14.910156 -0.78125 13.796875 -0.3125 C 12.679688 0.144531 11.484375 0.375 10.203125 0.375 Z M 10.203125 0.375 "/></g></g></g><g fill="#ffbe2d" fill-opacity="1"><g transform="translate(112.394015, 206.083933)"><g><path d="M 3.546875 0 L 2.234375 0 C 1.910156 0 1.75 -0.15625 1.75 -0.46875 L 1.75 -17.25 C 1.75 -17.570312 1.910156 -17.734375 2.234375 -17.734375 L 3.546875 -17.734375 C 3.859375 -17.734375 4.015625 -17.570312 4.015625 -17.25 L 4.015625 -7.75 L 12.671875 -7.75 L 12.671875 -17.25 C 12.671875 -17.570312 12.828125 -17.734375 13.140625 -17.734375 L 14.46875 -17.734375 C 14.78125 -17.734375 14.9375 -17.570312 14.9375 -17.25 L 14.9375 -0.46875 C 14.9375 -0.15625 14.78125 0 14.46875 0 L 13.140625 0 C 12.828125 0 12.671875 -0.15625 12.671875 -0.46875 L 12.671875 -5.640625 L 4.015625 -5.640625 L 4.015625 -0.46875 C 4.015625 -0.15625 3.859375 0 3.546875 0 Z M 3.546875 0 "/></g></g></g><g fill="#ffbe2d" fill-opacity="1"><g transform="translate(132.440796, 206.083933)"><g><path d="M 10.796875 0 L 2.234375 0 C 1.910156 0 1.75 -0.15625 1.75 -0.46875 L 1.75 -17.25 C 1.75 -17.570312 1.910156 -17.734375 2.234375 -17.734375 L 10.796875 -17.734375 C 11.117188 -17.734375 11.28125 -17.570312 11.28125 -17.25 L 11.28125 -16.09375 C 11.28125 -15.78125 11.117188 -15.625 10.796875 -15.625 L 4.015625 -15.625 L 4.015625 -7.734375 L 9.875 -7.734375 C 10.195312 -7.734375 10.359375 -7.578125 10.359375 -7.265625 L 10.359375 -6.140625 C 10.359375 -5.828125 10.195312 -5.671875 9.875 -5.671875 L 4.015625 -5.671875 L 4.015625 -2.109375 L 10.796875 -2.109375 C 11.117188 -2.109375 11.28125 -1.953125 11.28125 -1.640625 L 11.28125 -0.46875 C 11.28125 -0.15625 11.117188 0 10.796875 0 Z M 10.796875 0 "/></g></g></g><g fill="#ffbe2d" fill-opacity="1"><g transform="translate(147.998008, 206.083933)"><g><path d="M 6.71875 0.375 C 6.164062 0.375 5.609375 0.332031 5.046875 0.25 C 4.484375 0.175781 3.882812 0.0390625 3.25 -0.15625 C 2.625 -0.351562 1.945312 -0.617188 1.21875 -0.953125 C 0.925781 -1.097656 0.851562 -1.316406 1 -1.609375 L 1.5 -2.734375 C 1.644531 -3.015625 1.863281 -3.078125 2.15625 -2.921875 C 3.082031 -2.429688 3.90625 -2.097656 4.625 -1.921875 C 5.34375 -1.753906 5.988281 -1.671875 6.5625 -1.671875 C 7.570312 -1.671875 8.375 -1.882812 8.96875 -2.3125 C 9.5625 -2.75 9.859375 -3.359375 9.859375 -4.140625 C 9.859375 -4.597656 9.742188 -5.003906 9.515625 -5.359375 C 9.296875 -5.722656 8.992188 -6.054688 8.609375 -6.359375 C 8.222656 -6.671875 7.773438 -6.972656 7.265625 -7.265625 C 6.765625 -7.554688 6.234375 -7.863281 5.671875 -8.1875 C 5.117188 -8.5 4.578125 -8.820312 4.046875 -9.15625 C 3.515625 -9.5 3.039062 -9.878906 2.625 -10.296875 C 2.207031 -10.722656 1.875 -11.207031 1.625 -11.75 C 1.375 -12.300781 1.25 -12.929688 1.25 -13.640625 C 1.25 -14.421875 1.382812 -15.085938 1.65625 -15.640625 C 1.9375 -16.203125 2.316406 -16.664062 2.796875 -17.03125 C 3.285156 -17.394531 3.835938 -17.660156 4.453125 -17.828125 C 5.078125 -18.003906 5.734375 -18.09375 6.421875 -18.09375 C 7.128906 -18.09375 7.878906 -18.003906 8.671875 -17.828125 C 9.472656 -17.648438 10.265625 -17.390625 11.046875 -17.046875 C 11.335938 -16.910156 11.414062 -16.703125 11.28125 -16.421875 L 10.8125 -15.296875 C 10.75 -15.171875 10.664062 -15.082031 10.5625 -15.03125 C 10.457031 -14.988281 10.332031 -15.003906 10.1875 -15.078125 C 9.550781 -15.367188 8.910156 -15.597656 8.265625 -15.765625 C 7.617188 -15.929688 7.003906 -16.015625 6.421875 -16.015625 C 5.898438 -16.015625 5.414062 -15.9375 4.96875 -15.78125 C 4.53125 -15.632812 4.175781 -15.398438 3.90625 -15.078125 C 3.644531 -14.753906 3.515625 -14.332031 3.515625 -13.8125 C 3.515625 -13.34375 3.613281 -12.925781 3.8125 -12.5625 C 4.019531 -12.195312 4.296875 -11.863281 4.640625 -11.5625 C 4.984375 -11.257812 5.375 -10.972656 5.8125 -10.703125 C 6.257812 -10.441406 6.726562 -10.175781 7.21875 -9.90625 C 7.6875 -9.644531 8.15625 -9.378906 8.625 -9.109375 C 9.09375 -8.835938 9.535156 -8.539062 9.953125 -8.21875 C 10.367188 -7.90625 10.738281 -7.554688 11.0625 -7.171875 C 11.394531 -6.796875 11.65625 -6.367188 11.84375 -5.890625 C 12.03125 -5.410156 12.125 -4.867188 12.125 -4.265625 C 12.125 -3.492188 11.984375 -2.816406 11.703125 -2.234375 C 11.421875 -1.660156 11.03125 -1.175781 10.53125 -0.78125 C 10.03125 -0.394531 9.453125 -0.109375 8.796875 0.078125 C 8.148438 0.273438 7.457031 0.375 6.71875 0.375 Z M 6.71875 0.375 "/></g></g></g><g fill="#ffbe2d" fill-opacity="1"><g transform="translate(164.397737, 206.083933)"><g><path d="M 6.71875 0.375 C 6.164062 0.375 5.609375 0.332031 5.046875 0.25 C 4.484375 0.175781 3.882812 0.0390625 3.25 -0.15625 C 2.625 -0.351562 1.945312 -0.617188 1.21875 -0.953125 C 0.925781 -1.097656 0.851562 -1.316406 1 -1.609375 L 1.5 -2.734375 C 1.644531 -3.015625 1.863281 -3.078125 2.15625 -2.921875 C 3.082031 -2.429688 3.90625 -2.097656 4.625 -1.921875 C 5.34375 -1.753906 5.988281 -1.671875 6.5625 -1.671875 C 7.570312 -1.671875 8.375 -1.882812 8.96875 -2.3125 C 9.5625 -2.75 9.859375 -3.359375 9.859375 -4.140625 C 9.859375 -4.597656 9.742188 -5.003906 9.515625 -5.359375 C 9.296875 -5.722656 8.992188 -6.054688 8.609375 -6.359375 C 8.222656 -6.671875 7.773438 -6.972656 7.265625 -7.265625 C 6.765625 -7.554688 6.234375 -7.863281 5.671875 -8.1875 C 5.117188 -8.5 4.578125 -8.820312 4.046875 -9.15625 C 3.515625 -9.5 3.039062 -9.878906 2.625 -10.296875 C 2.207031 -10.722656 1.875 -11.207031 1.625 -11.75 C 1.375 -12.300781 1.25 -12.929688 1.25 -13.640625 C 1.25 -14.421875 1.382812 -15.085938 1.65625 -15.640625 C 1.9375 -16.203125 2.316406 -16.664062 2.796875 -17.03125 C 3.285156 -17.394531 3.835938 -17.660156 4.453125 -17.828125 C 5.078125 -18.003906 5.734375 -18.09375 6.421875 -18.09375 C 7.128906 -18.09375 7.878906 -18.003906 8.671875 -17.828125 C 9.472656 -17.648438 10.265625 -17.390625 11.046875 -17.046875 C 11.335938 -16.910156 11.414062 -16.703125 11.28125 -16.421875 L 10.8125 -15.296875 C 10.75 -15.171875 10.664062 -15.082031 10.5625 -15.03125 C 10.457031 -14.988281 10.332031 -15.003906 10.1875 -15.078125 C 9.550781 -15.367188 8.910156 -15.597656 8.265625 -15.765625 C 7.617188 -15.929688 7.003906 -16.015625 6.421875 -16.015625 C 5.898438 -16.015625 5.414062 -15.9375 4.96875 -15.78125 C 4.53125 -15.632812 4.175781 -15.398438 3.90625 -15.078125 C 3.644531 -14.753906 3.515625 -14.332031 3.515625 -13.8125 C 3.515625 -13.34375 3.613281 -12.925781 3.8125 -12.5625 C 4.019531 -12.195312 4.296875 -11.863281 4.640625 -11.5625 C 4.984375 -11.257812 5.375 -10.972656 5.8125 -10.703125 C 6.257812 -10.441406 6.726562 -10.175781 7.21875 -9.90625 C 7.6875 -9.644531 8.15625 -9.378906 8.625 -9.109375 C 9.09375 -8.835938 9.535156 -8.539062 9.953125 -8.21875 C 10.367188 -7.90625 10.738281 -7.554688 11.0625 -7.171875 C 11.394531 -6.796875 11.65625 -6.367188 11.84375 -5.890625 C 12.03125 -5.410156 12.125 -4.867188 12.125 -4.265625 C 12.125 -3.492188 11.984375 -2.816406 11.703125 -2.234375 C 11.421875 -1.660156 11.03125 -1.175781 10.53125 -0.78125 C 10.03125 -0.394531 9.453125 -0.109375 8.796875 0.078125 C 8.148438 0.273438 7.457031 0.375 6.71875 0.375 Z M 6.71875 0.375 "/></g></g></g><g fill="#ffbe2d" fill-opacity="1"><g transform="translate(180.797455, 206.083933)"><g/></g></g><g fill="#ffbe2d" fill-opacity="1"><g transform="translate(190.930216, 206.083933)"><g><path d="M 6.5625 0 L 5.234375 0 C 4.921875 0 4.765625 -0.15625 4.765625 -0.46875 L 4.765625 -15.625 L 0.75 -15.625 C 0.4375 -15.625 0.28125 -15.78125 0.28125 -16.09375 L 0.28125 -17.25 C 0.28125 -17.570312 0.4375 -17.734375 0.75 -17.734375 L 11.0625 -17.734375 C 11.375 -17.734375 11.53125 -17.570312 11.53125 -17.25 L 11.53125 -16.09375 C 11.53125 -15.78125 11.375 -15.625 11.0625 -15.625 L 7.046875 -15.625 L 7.046875 -0.46875 C 7.046875 -0.15625 6.882812 0 6.5625 0 Z M 6.5625 0 "/></g></g></g><g fill="#ffbe2d" fill-opacity="1"><g transform="translate(206.106555, 206.083933)"><g><path d="M 10.234375 0.375 C 9.203125 0.375 8.222656 0.226562 7.296875 -0.0625 C 6.367188 -0.351562 5.519531 -0.769531 4.75 -1.3125 C 3.988281 -1.851562 3.328125 -2.503906 2.765625 -3.265625 C 2.203125 -4.023438 1.765625 -4.875 1.453125 -5.8125 C 1.148438 -6.757812 1 -7.773438 1 -8.859375 C 1 -9.953125 1.148438 -10.96875 1.453125 -11.90625 C 1.765625 -12.851562 2.203125 -13.703125 2.765625 -14.453125 C 3.328125 -15.210938 3.988281 -15.863281 4.75 -16.40625 C 5.519531 -16.945312 6.367188 -17.363281 7.296875 -17.65625 C 8.222656 -17.945312 9.203125 -18.09375 10.234375 -18.09375 C 11.253906 -18.09375 12.226562 -17.945312 13.15625 -17.65625 C 14.082031 -17.363281 14.929688 -16.945312 15.703125 -16.40625 C 16.472656 -15.863281 17.132812 -15.210938 17.6875 -14.453125 C 18.25 -13.703125 18.6875 -12.851562 19 -11.90625 C 19.3125 -10.96875 19.46875 -9.953125 19.46875 -8.859375 C 19.46875 -7.773438 19.3125 -6.757812 19 -5.8125 C 18.6875 -4.875 18.25 -4.023438 17.6875 -3.265625 C 17.132812 -2.503906 16.472656 -1.851562 15.703125 -1.3125 C 14.929688 -0.769531 14.082031 -0.351562 13.15625 -0.0625 C 12.238281 0.226562 11.265625 0.375 10.234375 0.375 Z M 10.234375 -1.8125 C 11.191406 -1.8125 12.085938 -1.976562 12.921875 -2.3125 C 13.765625 -2.65625 14.503906 -3.140625 15.140625 -3.765625 C 15.785156 -4.390625 16.285156 -5.132812 16.640625 -6 C 17.003906 -6.863281 17.1875 -7.816406 17.1875 -8.859375 C 17.1875 -9.910156 17.003906 -10.863281 16.640625 -11.71875 C 16.285156 -12.582031 15.785156 -13.328125 15.140625 -13.953125 C 14.503906 -14.585938 13.765625 -15.070312 12.921875 -15.40625 C 12.085938 -15.75 11.191406 -15.921875 10.234375 -15.921875 C 9.265625 -15.921875 8.359375 -15.75 7.515625 -15.40625 C 6.671875 -15.070312 5.929688 -14.585938 5.296875 -13.953125 C 4.660156 -13.328125 4.160156 -12.582031 3.796875 -11.71875 C 3.441406 -10.863281 3.265625 -9.910156 3.265625 -8.859375 C 3.265625 -7.828125 3.445312 -6.878906 3.8125 -6.015625 C 4.175781 -5.148438 4.675781 -4.40625 5.3125 -3.78125 C 5.945312 -3.15625 6.679688 -2.671875 7.515625 -2.328125 C 8.359375 -1.984375 9.265625 -1.8125 10.234375 -1.8125 Z M 10.234375 -1.8125 "/></g></g></g><g fill="#ffbe2d" fill-opacity="1"><g transform="translate(229.938916, 206.083933)"><g><path d="M 10.234375 0.375 C 9.203125 0.375 8.222656 0.226562 7.296875 -0.0625 C 6.367188 -0.351562 5.519531 -0.769531 4.75 -1.3125 C 3.988281 -1.851562 3.328125 -2.503906 2.765625 -3.265625 C 2.203125 -4.023438 1.765625 -4.875 1.453125 -5.8125 C 1.148438 -6.757812 1 -7.773438 1 -8.859375 C 1 -9.953125 1.148438 -10.96875 1.453125 -11.90625 C 1.765625 -12.851562 2.203125 -13.703125 2.765625 -14.453125 C 3.328125 -15.210938 3.988281 -15.863281 4.75 -16.40625 C 5.519531 -16.945312 6.367188 -17.363281 7.296875 -17.65625 C 8.222656 -17.945312 9.203125 -18.09375 10.234375 -18.09375 C 11.253906 -18.09375 12.226562 -17.945312 13.15625 -17.65625 C 14.082031 -17.363281 14.929688 -16.945312 15.703125 -16.40625 C 16.472656 -15.863281 17.132812 -15.210938 17.6875 -14.453125 C 18.25 -13.703125 18.6875 -12.851562 19 -11.90625 C 19.3125 -10.96875 19.46875 -9.953125 19.46875 -8.859375 C 19.46875 -7.773438 19.3125 -6.757812 19 -5.8125 C 18.6875 -4.875 18.25 -4.023438 17.6875 -3.265625 C 17.132812 -2.503906 16.472656 -1.851562 15.703125 -1.3125 C 14.929688 -0.769531 14.082031 -0.351562 13.15625 -0.0625 C 12.238281 0.226562 11.265625 0.375 10.234375 0.375 Z M 10.234375 -1.8125 C 11.191406 -1.8125 12.085938 -1.976562 12.921875 -2.3125 C 13.765625 -2.65625 14.503906 -3.140625 15.140625 -3.765625 C 15.785156 -4.390625 16.285156 -5.132812 16.640625 -6 C 17.003906 -6.863281 17.1875 -7.816406 17.1875 -8.859375 C 17.1875 -9.910156 17.003906 -10.863281 16.640625 -11.71875 C 16.285156 -12.582031 15.785156 -13.328125 15.140625 -13.953125 C 14.503906 -14.585938 13.765625 -15.070312 12.921875 -15.40625 C 12.085938 -15.75 11.191406 -15.921875 10.234375 -15.921875 C 9.265625 -15.921875 8.359375 -15.75 7.515625 -15.40625 C 6.671875 -15.070312 5.929688 -14.585938 5.296875 -13.953125 C 4.660156 -13.328125 4.160156 -12.582031 3.796875 -11.71875 C 3.441406 -10.863281 3.265625 -9.910156 3.265625 -8.859375 C 3.265625 -7.828125 3.445312 -6.878906 3.8125 -6.015625 C 4.175781 -5.148438 4.675781 -4.40625 5.3125 -3.78125 C 5.945312 -3.15625 6.679688 -2.671875 7.515625 -2.328125 C 8.359375 -1.984375 9.265625 -1.8125 10.234375 -1.8125 Z M 10.234375 -1.8125 "/></g></g></g><g fill="#ffbe2d" fill-opacity="1"><g transform="translate(253.771248, 206.083933)"><g><path d="M 9.25 0 L 2.234375 0 C 1.910156 0 1.75 -0.15625 1.75 -0.46875 L 1.75 -17.25 C 1.75 -17.570312 1.910156 -17.734375 2.234375 -17.734375 L 3.546875 -17.734375 C 3.859375 -17.734375 4.015625 -17.570312 4.015625 -17.25 L 4.015625 -2.109375 L 9.25 -2.109375 C 9.570312 -2.109375 9.734375 -1.953125 9.734375 -1.640625 L 9.734375 -0.46875 C 9.734375 -0.15625 9.570312 0 9.25 0 Z M 9.25 0 "/></g></g></g><g fill="#ffbe2d" fill-opacity="1"><g transform="translate(267.158689, 206.083933)"><g><path d="M 6.71875 0.375 C 6.164062 0.375 5.609375 0.332031 5.046875 0.25 C 4.484375 0.175781 3.882812 0.0390625 3.25 -0.15625 C 2.625 -0.351562 1.945312 -0.617188 1.21875 -0.953125 C 0.925781 -1.097656 0.851562 -1.316406 1 -1.609375 L 1.5 -2.734375 C 1.644531 -3.015625 1.863281 -3.078125 2.15625 -2.921875 C 3.082031 -2.429688 3.90625 -2.097656 4.625 -1.921875 C 5.34375 -1.753906 5.988281 -1.671875 6.5625 -1.671875 C 7.570312 -1.671875 8.375 -1.882812 8.96875 -2.3125 C 9.5625 -2.75 9.859375 -3.359375 9.859375 -4.140625 C 9.859375 -4.597656 9.742188 -5.003906 9.515625 -5.359375 C 9.296875 -5.722656 8.992188 -6.054688 8.609375 -6.359375 C 8.222656 -6.671875 7.773438 -6.972656 7.265625 -7.265625 C 6.765625 -7.554688 6.234375 -7.863281 5.671875 -8.1875 C 5.117188 -8.5 4.578125 -8.820312 4.046875 -9.15625 C 3.515625 -9.5 3.039062 -9.878906 2.625 -10.296875 C 2.207031 -10.722656 1.875 -11.207031 1.625 -11.75 C 1.375 -12.300781 1.25 -12.929688 1.25 -13.640625 C 1.25 -14.421875 1.382812 -15.085938 1.65625 -15.640625 C 1.9375 -16.203125 2.316406 -16.664062 2.796875 -17.03125 C 3.285156 -17.394531 3.835938 -17.660156 4.453125 -17.828125 C 5.078125 -18.003906 5.734375 -18.09375 6.421875 -18.09375 C 7.128906 -18.09375 7.878906 -18.003906 8.671875 -17.828125 C 9.472656 -17.648438 10.265625 -17.390625 11.046875 -17.046875 C 11.335938 -16.910156 11.414062 -16.703125 11.28125 -16.421875 L 10.8125 -15.296875 C 10.75 -15.171875 10.664062 -15.082031 10.5625 -15.03125 C 10.457031 -14.988281 10.332031 -15.003906 10.1875 -15.078125 C 9.550781 -15.367188 8.910156 -15.597656 8.265625 -15.765625 C 7.617188 -15.929688 7.003906 -16.015625 6.421875 -16.015625 C 5.898438 -16.015625 5.414062 -15.9375 4.96875 -15.78125 C 4.53125 -15.632812 4.175781 -15.398438 3.90625 -15.078125 C 3.644531 -14.753906 3.515625 -14.332031 3.515625 -13.8125 C 3.515625 -13.34375 3.613281 -12.925781 3.8125 -12.5625 C 4.019531 -12.195312 4.296875 -11.863281 4.640625 -11.5625 C 4.984375 -11.257812 5.375 -10.972656 5.8125 -10.703125 C 6.257812 -10.441406 6.726562 -10.175781 7.21875 -9.90625 C 7.6875 -9.644531 8.15625 -9.378906 8.625 -9.109375 C 9.09375 -8.835938 9.535156 -8.539062 9.953125 -8.21875 C 10.367188 -7.90625 10.738281 -7.554688 11.0625 -7.171875 C 11.394531 -6.796875 11.65625 -6.367188 11.84375 -5.890625 C 12.03125 -5.410156 12.125 -4.867188 12.125 -4.265625 C 12.125 -3.492188 11.984375 -2.816406 11.703125 -2.234375 C 11.421875 -1.660156 11.03125 -1.175781 10.53125 -0.78125 C 10.03125 -0.394531 9.453125 -0.109375 8.796875 0.078125 C 8.148438 0.273438 7.457031 0.375 6.71875 0.375 Z M 6.71875 0.375 "/></g></g></g><g clip-path="url(#dc2ec5e3b5)"><path fill="#ffbe2d" d="M 165.984375 226.441406 L 169.921875 178.296875 L 201.773438 178.296875 L 205.714844 226.441406 Z M 209.78125 226.441406 L 161.496094 226.441406 C 161.496094 234.203125 157.449219 241.597656 152.019531 246.75 L 145.925781 252.53125 C 144.070312 253.707031 142.929688 255.835938 142.929688 258.148438 C 142.929688 261.753906 145.667969 264.675781 149.039062 264.671875 L 222.664062 264.640625 C 226.035156 264.640625 228.765625 261.714844 228.765625 258.113281 L 228.765625 258.109375 C 228.765625 255.804688 227.628906 253.667969 225.773438 252.492188 L 218.484375 245.714844 C 213.289062 240.882812 210.625 234.007812 210.257812 226.65625 Z M 232.054688 268.683594 C 232.054688 266.464844 230.261719 264.671875 228.046875 264.671875 L 143.652344 264.671875 C 141.4375 264.671875 139.640625 266.464844 139.640625 268.683594 C 139.640625 270.898438 141.4375 272.691406 143.652344 272.691406 L 228.046875 272.691406 C 230.261719 272.691406 232.054688 270.898438 232.054688 268.683594 Z M 214.761719 173.410156 C 214.761719 170.699219 212.5625 168.503906 209.851562 168.503906 L 161.847656 168.503906 C 159.136719 168.503906 156.9375 170.699219 156.9375 173.410156 C 156.9375 176.125 159.136719 178.320312 161.847656 178.320312 L 209.851562 178.320312 C 212.5625 178.320312 214.761719 176.125 214.761719 173.410156 Z M 211.542969 163.59375 C 211.542969 160.878906 209.34375 158.683594 206.632812 158.683594 L 165.066406 158.683594 C 162.351562 158.683594 160.15625 160.878906 160.15625 163.59375 C 160.15625 166.304688 162.351562 168.503906 165.066406 168.503906 L 206.628906 168.503906 C 209.34375 168.503906 211.542969 166.304688 211.542969 163.59375 Z M 199.324219 110.097656 C 199.324219 107.386719 197.128906 105.191406 194.414062 105.191406 L 177.285156 105.191406 C 174.570312 105.191406 172.375 107.386719 172.375 110.097656 C 172.375 112.8125 174.570312 115.007812 177.285156 115.007812 L 194.410156 115.007812 C 197.128906 115.007812 199.324219 112.8125 199.324219 110.097656 Z M 209.339844 115.007812 L 162.359375 115.007812 C 158.742188 115.007812 156.105469 118.441406 157.046875 121.9375 L 166.910156 158.683594 L 204.792969 158.683594 L 214.65625 121.9375 C 215.59375 118.441406 212.960938 115.007812 209.339844 115.007812 Z M 196.484375 91.648438 L 190.148438 91.648438 L 190.148438 85.308594 L 182.941406 85.308594 L 182.941406 91.648438 L 176.605469 91.648438 L 176.605469 98.855469 L 182.941406 98.855469 L 182.941406 105.195312 L 190.152344 105.195312 L 190.152344 98.851562 L 196.488281 98.851562 L 196.488281 91.648438 Z M 196.484375 91.648438 " fill-opacity="1" fill-rule="nonzero"/></g><g clip-path="url(#3f6f7225c5)"><path fill="#f5f5ef" d="M 205.714844 227.613281 L 165.988281 227.613281 C 165.660156 227.613281 165.347656 227.476562 165.125 227.234375 C 164.90625 226.988281 164.792969 226.671875 164.820312 226.34375 L 168.761719 178.199219 C 168.8125 177.589844 169.320312 177.121094 169.929688 177.121094 L 201.777344 177.121094 C 202.386719 177.121094 202.898438 177.589844 202.945312 178.199219 L 206.886719 226.34375 C 206.914062 226.671875 206.800781 226.988281 206.582031 227.234375 C 206.351562 227.476562 206.042969 227.613281 205.714844 227.613281 Z M 167.257812 225.269531 L 204.445312 225.269531 L 200.695312 179.46875 L 171 179.46875 Z M 149.039062 265.84375 C 147.082031 265.84375 145.246094 265.03125 143.867188 263.5625 C 142.507812 262.109375 141.765625 260.1875 141.765625 258.148438 C 141.765625 255.496094 143.078125 253.003906 145.203125 251.605469 L 151.21875 245.902344 C 156.925781 240.484375 160.328125 233.210938 160.328125 226.441406 C 160.328125 225.792969 160.855469 225.269531 161.5 225.269531 L 209.785156 225.269531 C 209.949219 225.269531 210.113281 225.308594 210.261719 225.375 L 210.742188 225.589844 C 211.144531 225.765625 211.410156 226.160156 211.429688 226.601562 C 211.792969 234.003906 214.582031 240.484375 219.28125 244.855469 L 226.496094 251.566406 C 228.621094 252.960938 229.9375 255.457031 229.9375 258.109375 C 229.9375 262.359375 226.671875 265.8125 222.664062 265.816406 Z M 162.640625 227.613281 C 162.289062 234.746094 158.753906 241.976562 152.824219 247.601562 L 146.730469 253.382812 C 146.675781 253.433594 146.613281 253.480469 146.550781 253.523438 C 145.042969 254.480469 144.101562 256.253906 144.101562 258.148438 C 144.101562 259.59375 144.625 260.949219 145.578125 261.964844 C 146.503906 262.957031 147.738281 263.507812 149.039062 263.507812 L 222.664062 263.472656 C 225.382812 263.472656 227.597656 261.070312 227.597656 258.117188 C 227.597656 256.214844 226.660156 254.445312 225.144531 253.484375 C 225.085938 253.449219 225.027344 253.402344 224.976562 253.355469 L 217.6875 246.574219 C 212.730469 241.964844 209.71875 235.261719 209.148438 227.617188 L 162.640625 227.617188 Z M 228.046875 273.863281 L 143.652344 273.863281 C 140.792969 273.863281 138.472656 271.539062 138.472656 268.683594 C 138.472656 265.824219 140.792969 263.5 143.652344 263.5 L 228.046875 263.5 C 230.902344 263.5 233.226562 265.824219 233.226562 268.683594 C 233.226562 271.539062 230.902344 273.863281 228.046875 273.863281 Z M 143.652344 265.84375 C 142.085938 265.84375 140.8125 267.117188 140.8125 268.683594 C 140.8125 270.246094 142.085938 271.519531 143.652344 271.519531 L 228.046875 271.519531 C 229.609375 271.519531 230.882812 270.246094 230.882812 268.683594 C 230.882812 267.117188 229.609375 265.84375 228.046875 265.84375 Z M 209.851562 179.492188 L 161.847656 179.492188 C 158.492188 179.492188 155.765625 176.765625 155.765625 173.410156 C 155.765625 170.058594 158.492188 167.332031 161.847656 167.332031 L 209.851562 167.332031 C 213.203125 167.332031 215.929688 170.058594 215.929688 173.410156 C 215.929688 176.765625 213.203125 179.492188 209.851562 179.492188 Z M 161.847656 169.671875 C 159.785156 169.671875 158.109375 171.351562 158.109375 173.410156 C 158.109375 175.472656 159.785156 177.148438 161.847656 177.148438 L 209.851562 177.148438 C 211.910156 177.148438 213.589844 175.472656 213.589844 173.410156 C 213.589844 171.351562 211.910156 169.671875 209.851562 169.671875 Z M 206.632812 169.671875 L 165.066406 169.671875 C 161.710938 169.671875 158.984375 166.945312 158.984375 163.59375 C 158.984375 160.238281 161.710938 157.511719 165.066406 157.511719 L 206.632812 157.511719 C 209.988281 157.511719 212.710938 160.238281 212.710938 163.59375 C 212.710938 166.945312 209.988281 169.671875 206.632812 169.671875 Z M 165.066406 159.855469 C 163.003906 159.855469 161.328125 161.53125 161.328125 163.59375 C 161.328125 165.652344 163.003906 167.332031 165.066406 167.332031 L 206.632812 167.332031 C 208.695312 167.332031 210.371094 165.652344 210.371094 163.59375 C 210.371094 161.53125 208.695312 159.855469 206.632812 159.855469 Z M 194.414062 116.179688 L 177.285156 116.179688 C 173.929688 116.179688 171.203125 113.453125 171.203125 110.097656 C 171.203125 106.746094 173.929688 104.019531 177.285156 104.019531 L 194.410156 104.019531 C 197.765625 104.019531 200.492188 106.746094 200.492188 110.097656 C 200.496094 113.453125 197.765625 116.179688 194.414062 116.179688 Z M 177.285156 106.359375 C 175.222656 106.359375 173.542969 108.039062 173.542969 110.097656 C 173.542969 112.160156 175.222656 113.835938 177.285156 113.835938 L 194.410156 113.835938 C 196.472656 113.835938 198.148438 112.160156 198.148438 110.097656 C 198.148438 108.039062 196.472656 106.359375 194.410156 106.359375 Z M 204.785156 159.855469 L 166.910156 159.855469 C 166.382812 159.855469 165.917969 159.5 165.78125 158.988281 L 155.910156 122.242188 C 155.367188 120.222656 155.789062 118.109375 157.058594 116.453125 C 158.335938 114.792969 160.265625 113.835938 162.351562 113.835938 L 209.335938 113.835938 C 211.429688 113.835938 213.355469 114.789062 214.628906 116.453125 C 215.902344 118.113281 216.320312 120.222656 215.777344 122.242188 L 205.910156 158.988281 C 205.785156 159.5 205.320312 159.855469 204.785156 159.855469 Z M 167.804688 157.511719 L 203.886719 157.511719 L 213.519531 121.632812 C 213.871094 120.320312 213.597656 118.953125 212.773438 117.875 C 211.949219 116.796875 210.695312 116.179688 209.335938 116.179688 L 162.359375 116.179688 C 161 116.179688 159.75 116.796875 158.917969 117.875 C 158.09375 118.953125 157.824219 120.320312 158.175781 121.632812 Z M 170.527344 146.671875 C 171.152344 146.503906 171.519531 145.863281 171.355469 145.238281 L 167.035156 129.132812 C 166.863281 128.507812 166.222656 128.140625 165.601562 128.304688 C 164.976562 128.472656 164.605469 129.113281 164.769531 129.738281 L 169.09375 145.84375 C 169.234375 146.367188 169.707031 146.710938 170.222656 146.710938 C 170.320312 146.714844 170.425781 146.699219 170.527344 146.671875 Z M 190.152344 106.359375 L 182.941406 106.359375 C 182.296875 106.359375 181.769531 105.835938 181.769531 105.191406 L 181.769531 100.023438 L 176.605469 100.023438 C 175.957031 100.023438 175.433594 99.496094 175.433594 98.851562 L 175.433594 91.648438 C 175.433594 91 175.957031 90.476562 176.605469 90.476562 L 181.769531 90.476562 L 181.769531 85.308594 C 181.769531 84.660156 182.296875 84.136719 182.941406 84.136719 L 190.152344 84.136719 C 190.796875 84.136719 191.324219 84.660156 191.324219 85.308594 L 191.324219 90.476562 L 196.488281 90.476562 C 197.136719 90.476562 197.660156 91 197.660156 91.648438 L 197.660156 98.855469 C 197.660156 99.503906 197.136719 100.027344 196.488281 100.027344 L 191.324219 100.027344 L 191.324219 105.195312 C 191.324219 105.835938 190.796875 106.359375 190.152344 106.359375 Z M 184.113281 104.019531 L 188.980469 104.019531 L 188.980469 98.851562 C 188.980469 98.203125 189.503906 97.679688 190.152344 97.679688 L 195.320312 97.679688 L 195.320312 92.816406 L 190.152344 92.816406 C 189.503906 92.816406 188.980469 92.292969 188.980469 91.648438 L 188.980469 86.480469 L 184.113281 86.480469 L 184.113281 91.648438 C 184.113281 92.292969 183.589844 92.816406 182.941406 92.816406 L 177.773438 92.816406 L 177.773438 97.683594 L 182.941406 97.683594 C 183.589844 97.683594 184.113281 98.210938 184.113281 98.855469 Z M 184.113281 104.019531 " fill-opacity="1" fill-rule="nonzero"/></g></svg>